<svg width="33" height="20" viewBox="0 0 33 20" fill="none" xmlns="http://www.w3.org/2000/svg">
<path d="M0.667143 10.1242C0.629078 10.059 0.596012 10.001 0.567896 9.95078C0.596012 9.9006 0.629078 9.84258 0.667143 9.77733C0.819132 9.51677 1.05059 9.14127 1.36459 8.6891C1.99305 7.78412 2.94949 6.57594 4.25789 5.36818C6.8721 2.95506 10.8814 0.550781 16.5 0.550781C22.1186 0.550781 26.1279 2.95506 28.7421 5.36818C30.0505 6.57594 31.007 7.78412 31.6354 8.6891C31.9494 9.14127 32.1809 9.51677 32.3329 9.77733C32.3709 9.84258 32.404 9.9006 32.4321 9.95078C32.404 10.001 32.3709 10.059 32.3329 10.1242C32.1809 10.3848 31.9494 10.7603 31.6354 11.2125C31.007 12.1174 30.0505 13.3256 28.7421 14.5334C26.1279 16.9465 22.1186 19.3508 16.5 19.3508C10.8814 19.3508 6.8721 16.9465 4.25789 14.5334C2.94949 13.3256 1.99305 12.1174 1.36459 11.2125C1.05059 10.7603 0.819132 10.3848 0.667143 10.1242Z" stroke="black" stroke-linecap="square"/>
<path d="M20.95 9.95098C20.95 12.4086 18.9577 14.401 16.5 14.401C14.0424 14.401 12.05 12.4086 12.05 9.95098C12.05 7.49331 14.0424 5.50098 16.5 5.50098C18.9577 5.50098 20.95 7.49331 20.95 9.95098Z" fill="black" stroke="black" stroke-linecap="square"/>
</svg>
