<svg width="41" height="41" viewBox="0 0 41 41" fill="none" xmlns="http://www.w3.org/2000/svg">
<path d="M9.56176 11.2446C9.47499 10.724 9.87648 10.25 10.4043 10.25H35.021L32.4585 25.625H11.9585L9.56176 11.2446Z" stroke="black" stroke-linecap="round"/>
<path d="M14.5208 34.1667C15.4643 34.1667 16.2292 33.4018 16.2292 32.4583C16.2292 31.5148 15.4643 30.75 14.5208 30.75C13.5773 30.75 12.8125 31.5148 12.8125 32.4583C12.8125 33.4018 13.5773 34.1667 14.5208 34.1667Z" stroke="black" stroke-linecap="round"/>
<path d="M29.8958 34.1667C30.8393 34.1667 31.6042 33.4018 31.6042 32.4583C31.6042 31.5148 30.8393 30.75 29.8958 30.75C28.9523 30.75 28.1875 31.5148 28.1875 32.4583C28.1875 33.4018 28.9523 34.1667 29.8958 34.1667Z" stroke="black" stroke-linecap="round"/>
<path d="M9.396 10.25V7.6875L6.8335 7.6875" stroke="black" stroke-linecap="round"/>
</svg>
