<svg width="64" height="58" viewBox="0 0 64 58" fill="none" xmlns="http://www.w3.org/2000/svg">
<g opacity="0.5" filter="url(#filter0_f_901_3281)">
<path d="M31.438 39.751L24.1309 18.6573L38.7451 18.6573L31.438 39.751Z" fill="#5C5C5C"/>
</g>
<g opacity="0.15" filter="url(#filter1_f_901_3281)">
<path d="M32.0005 39.751L15.4377 16.9698L48.5632 16.9698L32.0005 39.751Z" fill="url(#paint0_linear_901_3281)"/>
</g>
<g filter="url(#filter2_i_901_3281)">
<path d="M31.9108 41.7178L6.65752 6.49287L57.1641 6.49286L31.9108 41.7178Z" fill="white"/>
<path d="M31.9108 41.7178L6.65752 6.49287L57.1641 6.49286L31.9108 41.7178Z" fill="url(#paint1_linear_901_3281)"/>
</g>
<path d="M56.7259 6.71786L31.9108 41.3316L7.09567 6.71787L56.7259 6.71786Z" stroke="url(#paint2_radial_901_3281)" stroke-width="0.45"/>
<path d="M31.9101 34.7944L16.3604 13.6314H22.0042L31.9101 26.893L35.2673 23.0378L38.2669 26.2171L31.9101 34.7944Z" fill="url(#paint3_linear_901_3281)"/>
<path d="M31.9749 25.4836L23.1328 13.6315H28.9648L32.4902 18.5892L35.2503 13.6315L38.3673 18.5488L41.4024 13.6549L47.2133 13.6315L38.598 25.4836L35.2503 21.721L31.9749 25.4836Z" fill="url(#paint4_linear_901_3281)"/>
<defs>
<filter id="filter0_f_901_3281" x="6.13086" y="0.657288" width="50.6143" height="57.0938" filterUnits="userSpaceOnUse" color-interpolation-filters="sRGB">
<feFlood flood-opacity="0" result="BackgroundImageFix"/>
<feBlend mode="normal" in="SourceGraphic" in2="BackgroundImageFix" result="shape"/>
<feGaussianBlur stdDeviation="9" result="effect1_foregroundBlur_901_3281"/>
</filter>
<filter id="filter1_f_901_3281" x="0.812989" y="2.34479" width="62.375" height="52.0312" filterUnits="userSpaceOnUse" color-interpolation-filters="sRGB">
<feFlood flood-opacity="0" result="BackgroundImageFix"/>
<feBlend mode="normal" in="SourceGraphic" in2="BackgroundImageFix" result="shape"/>
<feGaussianBlur stdDeviation="7.3125" result="effect1_foregroundBlur_901_3281"/>
</filter>
<filter id="filter2_i_901_3281" x="6.65771" y="5.36786" width="50.5063" height="36.3499" filterUnits="userSpaceOnUse" color-interpolation-filters="sRGB">
<feFlood flood-opacity="0" result="BackgroundImageFix"/>
<feBlend mode="normal" in="SourceGraphic" in2="BackgroundImageFix" result="shape"/>
<feColorMatrix in="SourceAlpha" type="matrix" values="0 0 0 0 0 0 0 0 0 0 0 0 0 0 0 0 0 0 127 0" result="hardAlpha"/>
<feOffset dy="-1.125"/>
<feGaussianBlur stdDeviation="6.75"/>
<feComposite in2="hardAlpha" operator="arithmetic" k2="-1" k3="1"/>
<feColorMatrix type="matrix" values="0 0 0 0 1 0 0 0 0 1 0 0 0 0 1 0 0 0 0.9 0"/>
<feBlend mode="lighten" in2="shape" result="effect1_innerShadow_901_3281"/>
</filter>
<linearGradient id="paint0_linear_901_3281" x1="32.0519" y1="41.236" x2="33.2136" y2="2.00337" gradientUnits="userSpaceOnUse">
<stop stop-color="#6C6868"/>
<stop offset="1" stop-color="#6C6868" stop-opacity="0"/>
</linearGradient>
<linearGradient id="paint1_linear_901_3281" x1="31.9108" y1="-21.87" x2="31.9108" y2="44.0316" gradientUnits="userSpaceOnUse">
<stop stop-color="white" stop-opacity="0"/>
<stop offset="1" stop-color="#DBDBDB"/>
</linearGradient>
<radialGradient id="paint2_radial_901_3281" cx="0" cy="0" r="1" gradientUnits="userSpaceOnUse" gradientTransform="translate(45.616 58.32) rotate(-109.314) scale(66.0588 82.0275)">
<stop stop-color="#D9D5D5"/>
<stop offset="1" stop-color="#E9E9E9" stop-opacity="0"/>
</radialGradient>
<linearGradient id="paint3_linear_901_3281" x1="33.5686" y1="30.8297" x2="16.8787" y2="13.7782" gradientUnits="userSpaceOnUse">
<stop stop-color="#26211D"/>
<stop offset="1" stop-color="#534D49"/>
</linearGradient>
<linearGradient id="paint4_linear_901_3281" x1="35.1427" y1="24.6046" x2="35.1427" y2="10.7361" gradientUnits="userSpaceOnUse">
<stop offset="0.120302" stop-color="#C4AB5A"/>
<stop offset="1" stop-color="#DFC570"/>
</linearGradient>
</defs>
</svg>
