<svg width="340" height="30" viewBox="0 0 340 30" fill="none" xmlns="http://www.w3.org/2000/svg">
<path d="M3.80471 1.017L11.48 24.003L14.838 13.9292L10.5206 1.017H14.2783L21.9537 24.003L29.589 1.017H30.3486L20.9943 29H19.8749L15.1978 15.0085L10.5206 29H9.40131L0.0469883 1.017H3.80471ZM45.8979 29.3198C43.3927 29.3198 41.1941 28.9334 39.3019 28.1605C37.4364 27.361 35.8773 26.3083 34.6247 25.0024C33.3988 23.6966 32.4794 22.1908 31.8664 20.4852C31.2534 18.7795 30.947 17.0073 30.947 15.1684C30.947 13.3029 31.2534 11.5173 31.8664 9.81166C32.4794 8.07937 33.3988 6.5603 34.6247 5.25442C35.8773 3.94855 37.4364 2.90918 39.3019 2.13632C41.1941 1.3368 43.3927 0.937047 45.8979 0.937047C48.4297 0.937047 50.6283 1.3368 52.4939 2.13632C54.3594 2.90918 55.9185 3.94855 57.171 5.25442C58.4236 6.5603 59.3564 8.07937 59.9693 9.81166C60.5823 11.5173 60.8888 13.3029 60.8888 15.1684C60.8888 17.0073 60.5823 18.7795 59.9693 20.4852C59.3564 22.1908 58.4236 23.6966 57.171 25.0024C55.9185 26.3083 54.3594 27.361 52.4939 28.1605C50.6283 28.9334 48.4297 29.3198 45.8979 29.3198ZM45.8979 1.57666C44.0857 1.57666 42.4999 1.96309 41.1408 2.73595C39.7816 3.48217 38.649 4.49489 37.7428 5.77411C36.8634 7.02668 36.1971 8.47913 35.7441 10.1315C35.3176 11.7571 35.1044 13.4361 35.1044 15.1684C35.1044 16.9007 35.3176 18.5797 35.7441 20.2053C36.1971 21.831 36.8634 23.2701 37.7428 24.5227C38.649 25.7753 39.7816 26.788 41.1408 27.5609C42.4999 28.3071 44.0857 28.6802 45.8979 28.6802C47.7368 28.6802 49.3225 28.3071 50.655 27.5609C52.0142 26.788 53.1468 25.7753 54.0529 24.5227C54.959 23.2435 55.6253 21.791 56.0517 20.1654C56.5048 18.5397 56.7313 16.8607 56.7313 15.1284C56.7313 13.3961 56.5048 11.7172 56.0517 10.0915C55.6253 8.43916 54.959 6.9867 54.0529 5.73413C53.1468 4.48156 52.0142 3.48217 50.655 2.73595C49.3225 1.96309 47.7368 1.57666 45.8979 1.57666ZM72.0273 1.017C73.653 1.017 75.1321 1.1769 76.4646 1.49671C77.7972 1.81651 78.9298 2.30955 79.8626 2.97581C80.822 3.64207 81.5549 4.49488 82.0612 5.53425C82.5942 6.54697 82.8607 7.77289 82.8607 9.21202C82.8607 11.3974 82.2744 13.1296 81.1018 14.4089C79.9292 15.6614 78.3168 16.5143 76.2648 16.9673L83.8601 29H79.7027L72.2672 17.407H68.2296V29H64.0722V1.017H72.0273ZM68.2296 1.65661V16.7674H69.6288C71.0146 16.7674 72.2805 16.6475 73.4265 16.4076C74.5991 16.1411 75.5985 15.7147 76.4247 15.1284C77.2508 14.5421 77.8904 13.7693 78.3435 12.8098C78.8232 11.8238 79.0631 10.6245 79.0631 9.21202C79.0631 7.77289 78.8232 6.57362 78.3435 5.6142C77.8904 4.65479 77.2508 3.88192 76.4247 3.29561C75.5985 2.7093 74.5991 2.29622 73.4265 2.05637C72.2805 1.78986 71.0146 1.65661 69.6288 1.65661H68.2296ZM91.2047 28.3204H104.717V29H87.0473V1.017H91.2047V28.3204ZM114.87 1.017C117.162 1.017 119.321 1.27018 121.346 1.77654C123.372 2.28289 125.144 3.09573 126.663 4.21506C128.182 5.30772 129.381 6.74685 130.261 8.53243C131.14 10.2914 131.58 12.4367 131.58 14.9685C131.58 17.527 131.14 19.699 130.261 21.4846C129.381 23.2701 128.182 24.7226 126.663 25.8419C125.144 26.9346 123.372 27.7341 121.346 28.2405C119.321 28.7468 117.162 29 114.87 29H107.914V1.017H114.87ZM114.87 28.3204C117.002 28.3204 118.854 28.0806 120.427 27.6008C121.999 27.1211 123.305 26.3616 124.344 25.3222C125.384 24.2562 126.157 22.8704 126.663 21.1648C127.169 19.4591 127.422 17.3937 127.422 14.9685C127.422 12.5433 127.169 10.4912 126.663 8.81226C126.157 7.13328 125.384 5.77411 124.344 4.73474C123.305 3.66872 121.999 2.89586 120.427 2.41615C118.854 1.93644 117.002 1.69659 114.87 1.69659H112.072V28.3204H114.87ZM160.93 29.3198C158.424 29.3198 156.226 28.9334 154.334 28.1605C152.468 27.361 150.909 26.3083 149.656 25.0024C148.431 23.6966 147.511 22.1908 146.898 20.4852C146.285 18.7795 145.979 17.0073 145.979 15.1684C145.979 13.3029 146.285 11.5173 146.898 9.81166C147.511 8.07937 148.431 6.5603 149.656 5.25442C150.909 3.94855 152.468 2.90918 154.334 2.13632C156.226 1.3368 158.424 0.937047 160.93 0.937047C163.461 0.937047 165.66 1.3368 167.526 2.13632C169.391 2.90918 170.95 3.94855 172.203 5.25442C173.455 6.5603 174.388 8.07937 175.001 9.81166C175.614 11.5173 175.92 13.3029 175.92 15.1684C175.92 17.0073 175.614 18.7795 175.001 20.4852C174.388 22.1908 173.455 23.6966 172.203 25.0024C170.95 26.3083 169.391 27.361 167.526 28.1605C165.66 28.9334 163.461 29.3198 160.93 29.3198ZM160.93 1.57666C159.117 1.57666 157.532 1.96309 156.172 2.73595C154.813 3.48217 153.681 4.49489 152.775 5.77411C151.895 7.02668 151.229 8.47913 150.776 10.1315C150.349 11.7571 150.136 13.4361 150.136 15.1684C150.136 16.9007 150.349 18.5797 150.776 20.2053C151.229 21.831 151.895 23.2701 152.775 24.5227C153.681 25.7753 154.813 26.788 156.172 27.5609C157.532 28.3071 159.117 28.6802 160.93 28.6802C162.768 28.6802 164.354 28.3071 165.687 27.5609C167.046 26.788 168.179 25.7753 169.085 24.5227C169.991 23.2435 170.657 21.791 171.083 20.1654C171.536 18.5397 171.763 16.8607 171.763 15.1284C171.763 13.3961 171.536 11.7172 171.083 10.0915C170.657 8.43916 169.991 6.9867 169.085 5.73413C168.179 4.48156 167.046 3.48217 165.687 2.73595C164.354 1.96309 162.768 1.57666 160.93 1.57666ZM179.104 1.017H195.054V1.69659H183.261V13.2496H190.977V13.9292H183.261V29H179.104V1.017ZM213.596 28.3204H227.108V29H209.439V1.017H213.596V28.3204ZM228.315 1.017H232.472V20.845C232.472 23.2168 233.058 25.1224 234.231 26.5615C235.43 27.974 237.189 28.6802 239.508 28.6802C240.68 28.6802 241.773 28.4936 242.786 28.1205C243.825 27.7474 244.731 27.2277 245.504 26.5615C246.277 25.8686 246.89 25.0424 247.343 24.083C247.796 23.1236 248.023 22.0442 248.023 20.845V1.017H248.702V20.845C248.702 22.1242 248.462 23.2835 247.983 24.3228C247.503 25.3622 246.85 26.255 246.024 27.0012C245.198 27.7208 244.225 28.2938 243.106 28.7202C241.986 29.1199 240.787 29.3198 239.508 29.3198C237.562 29.3198 235.883 29.1066 234.471 28.6802C233.085 28.2538 231.926 27.6542 230.993 26.8813C230.087 26.1084 229.407 25.189 228.954 24.123C228.528 23.0569 228.315 21.8843 228.315 20.6051V1.017ZM256.072 1.017L263.227 13.0097L271.103 1.017H271.942L263.627 13.6893L272.782 29H268.664L261.468 17.0073L253.593 29H252.754L261.069 16.3277L251.914 1.017H256.072ZM275.982 1.017H280.14V20.845C280.14 23.2168 280.726 25.1224 281.899 26.5615C283.098 27.974 284.857 28.6802 287.176 28.6802C288.348 28.6802 289.441 28.4936 290.454 28.1205C291.493 27.7474 292.399 27.2277 293.172 26.5615C293.945 25.8686 294.558 25.0424 295.011 24.083C295.464 23.1236 295.691 22.0442 295.691 20.845V1.017H296.37V20.845C296.37 22.1242 296.13 23.2835 295.651 24.3228C295.171 25.3622 294.518 26.255 293.692 27.0012C292.866 27.7208 291.893 28.2938 290.774 28.7202C289.654 29.1199 288.455 29.3198 287.176 29.3198C285.23 29.3198 283.551 29.1066 282.139 28.6802C280.753 28.2538 279.594 27.6542 278.661 26.8813C277.755 26.1084 277.075 25.189 276.622 24.123C276.196 23.0569 275.982 21.8843 275.982 20.6051V1.017ZM307.537 1.017C309.163 1.017 310.642 1.1769 311.975 1.49671C313.307 1.81651 314.44 2.30955 315.373 2.97581C316.332 3.64207 317.065 4.49488 317.571 5.53425C318.104 6.54697 318.371 7.77289 318.371 9.21202C318.371 11.3974 317.784 13.1296 316.612 14.4089C315.439 15.6614 313.827 16.5143 311.775 16.9673L319.37 29H315.213L307.777 17.407H303.74V29H299.582V1.017H307.537ZM303.74 1.65661V16.7674H305.139C306.525 16.7674 307.791 16.6475 308.937 16.4076C310.109 16.1411 311.109 15.7147 311.935 15.1284C312.761 14.5421 313.4 13.7693 313.854 12.8098C314.333 11.8238 314.573 10.6245 314.573 9.21202C314.573 7.77289 314.333 6.57362 313.854 5.6142C313.4 4.65479 312.761 3.88192 311.935 3.29561C311.109 2.7093 310.109 2.29622 308.937 2.05637C307.791 1.78986 306.525 1.65661 305.139 1.65661H303.74ZM324.373 1.017L331.809 13.6493L339.164 1.017H339.964C339.751 1.36345 339.498 1.78986 339.204 2.29622C338.911 2.80258 338.591 3.36224 338.245 3.9752C337.899 4.56151 337.525 5.1878 337.126 5.85406C336.753 6.52032 336.366 7.18658 335.966 7.85284C335.273 9.02547 334.594 10.1581 333.928 11.2508C333.288 12.3435 332.768 13.2362 332.369 13.9292V29H328.211V14.6087C327.838 13.9691 327.385 13.2229 326.852 12.3701C326.346 11.4906 325.813 10.5845 325.253 9.65175C324.693 8.69234 324.134 7.74624 323.574 6.81348C323.041 5.85406 322.535 4.98792 322.055 4.21506C321.575 3.41554 321.162 2.73595 320.816 2.17629C320.496 1.58998 320.283 1.20355 320.176 1.017H324.373Z" fill="#222222"/>
</svg>
