<svg width="20" height="20" viewBox="0 0 20 20" fill="none" xmlns="http://www.w3.org/2000/svg">
<g clip-path="url(#clip0_901_3237)">
<path fill-rule="evenodd" clip-rule="evenodd" d="M10 -3.5C7.51472 -3.5 5.5 -1.48528 5.5 1C5.5 3.48528 7.51472 5.5 10 5.5C12.4853 5.5 14.5 3.48528 14.5 1C14.5 -1.48528 12.4853 -3.5 10 -3.5ZM4.5 1C4.5 -2.03757 6.96243 -4.5 10 -4.5C13.0376 -4.5 15.5 -2.03757 15.5 1C15.5 3.59111 13.7082 5.76372 11.2961 6.34641L11.3033 6.35355L14.1317 9.18198C14.7175 9.76777 14.7175 10.7175 14.1317 11.3033L11.3033 14.1317C10.7175 14.7175 9.76777 14.7175 9.18198 14.1317L6.35356 11.3033C5.76777 10.7175 5.76777 9.76777 6.35356 9.18198L9.10757 6.42797C6.49442 6.00159 4.5 3.73371 4.5 1ZM10.5962 7.06066C10.4009 6.8654 10.0844 6.8654 9.88909 7.06066L7.06066 9.88909C6.8654 10.0843 6.8654 10.4009 7.06066 10.5962L9.88909 13.4246C10.0844 13.6199 10.4009 13.6199 10.5962 13.4246L13.4246 10.5962C13.6199 10.4009 13.6199 10.0843 13.4246 9.88909L10.5962 7.06066ZM11.0962 9.38915C10.6248 8.91773 9.86048 8.91773 9.38906 9.38915C9.04375 9.73446 8.95138 10.2369 9.11194 10.6663L9.03551 10.7428L9.38906 11.0963C9.73438 11.4416 10.2368 11.534 10.6662 11.3734L10.7427 11.4499L11.0962 11.0963C11.5676 10.6249 11.5676 9.86057 11.0962 9.38915ZM10.3891 10.3892C10.3082 10.4701 10.1771 10.4701 10.0962 10.3892C10.0153 10.3083 10.0153 10.1772 10.0962 10.0963C10.1771 10.0154 10.3082 10.0154 10.3891 10.0963C10.47 10.1772 10.47 10.3083 10.3891 10.3892Z" fill="black"/>
</g>
<defs>
<clipPath id="clip0_901_3237">
<rect width="20" height="20" fill="white"/>
</clipPath>
</defs>
</svg>
