<svg width="20" height="20" viewBox="0 0 20 20" fill="none" xmlns="http://www.w3.org/2000/svg">
<g clip-path="url(#clip0_901_3212)">
<path fill-rule="evenodd" clip-rule="evenodd" d="M-3.65606 1.95452L-3.3064 1.60486L1.64936 -3.3509L2.00133 -3.70287L2.35214 -3.34974L8.86339 3.20464C10.9393 2.87821 13.1373 3.51481 14.7369 5.11445C16.3368 6.71432 16.9733 8.91273 16.6466 10.9889L23.1619 17.5042L23.5127 17.855L23.1619 18.2058L18.206 23.1616L17.8552 23.5124L17.5044 23.1616L10.9891 16.6462C8.91297 16.9729 6.71465 16.3364 5.11483 14.7365C3.51471 13.1364 2.8782 10.9376 3.20531 8.86112L-3.30755 2.30533L-3.65606 1.95452ZM4.22317 8.80265C4.22487 8.79499 4.22639 8.7873 4.22773 8.77958C4.44507 7.69369 4.97464 6.65788 5.81645 5.81607C6.65743 4.97509 7.69202 4.44574 8.77674 4.228C8.78657 4.22636 8.79635 4.22442 8.80607 4.22219C10.6405 3.86376 12.6143 4.39505 14.0353 5.81607C15.457 7.23775 15.9881 9.21274 15.6287 11.0478C15.6269 11.0558 15.6253 11.0639 15.6239 11.0719C15.4065 12.1576 14.877 13.1932 14.0353 14.0349C13.1926 14.8776 12.1555 15.4074 11.0683 15.6243C11.0628 15.6253 11.0574 15.6264 11.0519 15.6276C9.21579 15.9884 7.23909 15.4575 5.81645 14.0349C4.39465 12.6131 3.86356 10.6379 4.22317 8.80265ZM12.1152 16.3691L17.8552 22.1092L22.1094 17.855L16.3694 12.115C16.0447 13.0729 15.5005 13.9729 14.7369 14.7365C13.9732 15.5002 13.0732 16.0444 12.1152 16.3691ZM7.73928 3.48098C6.78024 3.80557 5.87922 4.35006 5.11483 5.11445C4.35198 5.8773 3.80815 6.77623 3.48333 7.7331L-2.25512 1.95683L1.99901 -2.29731L7.73928 3.48098Z" fill="black"/>
</g>
<defs>
<clipPath id="clip0_901_3212">
<rect width="20" height="20" fill="white"/>
</clipPath>
</defs>
</svg>
