<svg width="20" height="20" viewBox="0 0 20 20" fill="none" xmlns="http://www.w3.org/2000/svg">
<path fill-rule="evenodd" clip-rule="evenodd" d="M9.99984 1.84912L9.68209 2.23042L9.67662 2.23699L9.67603 2.2377L9.66639 2.24936L9.63009 2.29367C9.59858 2.33232 9.55277 2.38896 9.49472 2.46194C9.37862 2.60789 9.21342 2.81937 9.01546 3.08331C8.61988 3.61075 8.09188 4.34987 7.56317 5.19581C7.03515 6.04064 6.50192 6.99915 6.0996 7.96472C5.69941 8.92516 5.4165 9.92122 5.4165 10.8333C5.4165 12.615 6.43314 14.1585 7.9165 14.9168V17.5V17.9166H8.33317H11.6665H12.0832V17.5V14.9168C13.5665 14.1585 14.5832 12.615 14.5832 10.8333C14.5832 9.92122 14.3003 8.92516 13.9001 7.96472C13.4978 6.99915 12.9645 6.04064 12.4365 5.19581C11.9078 4.34987 11.3798 3.61075 10.9842 3.08331C10.7863 2.81937 10.6211 2.60789 10.505 2.46194C10.4469 2.38896 10.4011 2.33232 10.3696 2.29367L10.3333 2.24936L10.3236 2.2377L10.3214 2.23502L9.68209 2.23042L10.3191 2.23224L9.99984 1.84912ZM8.26984 5.63747C8.74006 4.88511 9.21089 4.21806 9.58316 3.71602V8.82106C9.09766 8.99265 8.74982 9.45567 8.74982 9.99993C8.74982 10.6903 9.30946 11.2499 9.99982 11.2499C10.6902 11.2499 11.2498 10.6903 11.2498 9.99993C11.2498 9.45568 10.902 8.99267 10.4165 8.82107V3.71599C10.7888 4.21803 11.2596 4.8851 11.7298 5.63747C12.2435 6.45931 12.7519 7.3758 13.1308 8.28523C13.5119 9.19979 13.7498 10.0787 13.7498 10.8333C13.7498 12.3704 12.825 13.6924 11.4997 14.2715L11.2498 14.3807V14.6533V17.0833H8.74984V14.6533V14.3807L8.5 14.2715C7.1747 13.6924 6.24984 12.3704 6.24984 10.8333C6.24984 10.0787 6.48776 9.19979 6.86883 8.28523C7.24776 7.3758 7.75619 6.45931 8.26984 5.63747ZM9.58315 9.99993C9.58315 9.76982 9.7697 9.58327 9.99982 9.58327C10.2299 9.58327 10.4165 9.76982 10.4165 9.99993C10.4165 10.2301 10.2299 10.4166 9.99982 10.4166C9.7697 10.4166 9.58315 10.2301 9.58315 9.99993Z" fill="black"/>
</svg>
