<svg width="20" height="20" viewBox="0 0 20 20" fill="none" xmlns="http://www.w3.org/2000/svg">
<path fill-rule="evenodd" clip-rule="evenodd" d="M6.44543 13.616C6.72108 13.5995 6.93117 13.3627 6.91468 13.087L6.91463 13.0862L6.9144 13.0822L6.91344 13.0645C6.9126 13.0485 6.91139 13.0242 6.90995 12.9922C6.90709 12.928 6.90335 12.833 6.90001 12.7114C6.89333 12.4682 6.88824 12.1193 6.89481 11.7002C6.89615 11.6146 6.89798 11.5261 6.90038 11.4351H13.0996C13.102 11.5261 13.1038 11.6146 13.1052 11.7002C13.1117 12.1193 13.1066 12.4682 13.1 12.7114C13.0966 12.833 13.0929 12.928 13.09 12.9922C13.0886 13.0242 13.0874 13.0485 13.0865 13.0645L13.0856 13.0822L13.0853 13.0862L13.0853 13.087L13.0853 13.0871C13.0689 13.3627 13.2789 13.5995 13.5545 13.616C13.8302 13.6325 14.067 13.4224 14.0835 13.1467L13.6309 13.1197C14.0835 13.1467 14.0835 13.1466 14.0835 13.1464L14.0836 13.1459L14.0837 13.1442L14.084 13.1383L14.0852 13.117C14.0861 13.0985 14.0875 13.0716 14.089 13.0368C14.0921 12.9674 14.0961 12.8666 14.0996 12.7389C14.1066 12.4835 14.1119 12.1201 14.105 11.6845C14.1038 11.6039 14.1021 11.5206 14.0999 11.4351H14.9091C15.2354 11.4351 15.5 11.6996 15.5 12.026V14.987C15.5 15.3134 15.2354 15.5779 14.9091 15.5779H5.09091C4.76456 15.5779 4.5 15.3134 4.5 14.987V12.026C4.5 11.6996 4.76456 11.4351 5.09091 11.4351H5.90004C5.89788 11.5206 5.8962 11.6039 5.89493 11.6845C5.88811 12.1201 5.89337 12.4835 5.90039 12.7389C5.9039 12.8666 5.90785 12.9674 5.91095 13.0368C5.91251 13.0716 5.91385 13.0985 5.91482 13.117L5.91598 13.1383L5.91631 13.1442L5.91641 13.1459L5.91644 13.1464C5.91645 13.1466 5.91646 13.1467 6.36971 13.1196L5.91646 13.1467C5.93295 13.4224 6.16978 13.6325 6.44543 13.616ZM5.94516 10.4351H5.09091C4.21227 10.4351 3.5 11.1473 3.5 12.026V14.987C3.5 15.8656 4.21227 16.5779 5.09091 16.5779H14.9091C15.7877 16.5779 16.5 15.8656 16.5 14.987V12.026C16.5 11.1473 15.7877 10.4351 14.9091 10.4351H14.0548C14.0145 9.82095 13.9463 9.14965 13.8341 8.47624C13.6401 7.31212 13.3075 6.09745 12.7274 5.16115C12.1374 4.20913 11.257 3.5 9.99999 3.5C8.74298 3.5 7.86254 4.20913 7.27262 5.16115C6.69243 6.09745 6.3599 7.31212 6.16588 8.47624C6.05365 9.14965 5.98546 9.82095 5.94516 10.4351ZM6.94741 10.4351H13.0526C13.0136 9.86641 12.9497 9.25255 12.8477 8.64064C12.6618 7.52554 12.3564 6.46099 11.8773 5.68788C11.408 4.93048 10.8079 4.5 9.99999 4.5C9.19206 4.5 8.59197 4.93048 8.12265 5.68788C7.64358 6.46099 7.33812 7.52554 7.15227 8.64064C7.05029 9.25255 6.98639 9.86641 6.94741 10.4351Z" fill="black"/>
</svg>
