<svg width="20" height="20" viewBox="0 0 20 20" fill="none" xmlns="http://www.w3.org/2000/svg">
<path fill-rule="evenodd" clip-rule="evenodd" d="M-3.65606 1.95455L-3.3064 1.60489L1.64936 -3.35087L2.00133 -3.70284L2.35214 -3.34971L8.86339 3.20467C10.9393 2.87824 13.1373 3.51484 14.7369 5.11448C16.3368 6.71435 16.9733 8.91276 16.6466 10.9889L23.1619 17.5042L23.5127 17.855L23.1619 18.2058L18.206 23.1616L17.8552 23.5124L17.5044 23.1616L10.9891 16.6463C8.91297 16.973 6.71465 16.3364 5.11483 14.7366C3.51471 13.1364 2.8782 10.9376 3.20531 8.86116L-3.30755 2.30536L-3.65606 1.95455ZM4.22317 8.80268C4.22487 8.79502 4.22639 8.78733 4.22773 8.77961C4.44507 7.69372 4.97464 6.65791 5.81645 5.8161C6.65743 4.97512 7.69202 4.44577 8.77674 4.22803C8.78657 4.22639 8.79635 4.22445 8.80607 4.22222C10.6405 3.86379 12.6143 4.39509 14.0353 5.8161C15.457 7.23778 15.9881 9.21277 15.6287 11.0479C15.6269 11.0559 15.6253 11.0639 15.6239 11.072C15.4065 12.1577 14.877 13.1933 14.0353 14.0349C13.1926 14.8777 12.1555 15.4075 11.0683 15.6244C11.0628 15.6253 11.0574 15.6264 11.0519 15.6276C9.21579 15.9885 7.23909 15.4576 5.81645 14.0349C4.39465 12.6131 3.86356 10.6379 4.22317 8.80268ZM12.1152 16.3691L17.8552 22.1092L22.1094 17.855L16.3694 12.115C16.0447 13.0729 15.5005 13.9729 14.7369 14.7366C13.9732 15.5002 13.0732 16.0444 12.1152 16.3691ZM7.73928 3.48101C6.78024 3.8056 5.87922 4.35009 5.11483 5.11448C4.35198 5.87733 3.80815 6.77626 3.48333 7.73313L-2.25512 1.95686L1.99901 -2.29728L7.73928 3.48101Z" fill="white"/>
</svg>
