<svg width="20" height="20" viewBox="0 0 20 20" fill="none" xmlns="http://www.w3.org/2000/svg">
<path fill-rule="evenodd" clip-rule="evenodd" d="M16.2547 5.02503C16.4977 5.09014 16.7469 4.96455 16.8434 4.74C16.8604 4.70049 16.8721 4.65933 16.8785 4.6176C16.8889 4.5497 16.885 4.48222 16.8688 4.41865C16.8445 4.323 16.7918 4.23354 16.7116 4.16402C16.2115 3.73068 15.7511 3.41777 15.2198 3.27125C14.683 3.12325 14.1346 3.16129 13.4886 3.30821C13.3739 3.33432 13.2774 3.39798 13.2092 3.48328C13.1857 3.51261 13.1653 3.54487 13.1486 3.5797C13.1181 3.64328 13.1008 3.71358 13.0995 3.78631C13.0981 3.85903 13.1126 3.92994 13.1407 3.99463C13.1562 4.03047 13.1756 4.06383 13.1983 4.09431C13.2632 4.18166 13.3569 4.24855 13.4701 4.2789L16.2547 5.02503ZM11.3512 4.68565C11.4227 4.41892 11.6969 4.26063 11.9636 4.3321L17.5328 5.82436C17.7995 5.89583 17.9578 6.17 17.8864 6.43674C17.8149 6.70347 17.5407 6.86176 17.274 6.79029L14.9229 6.1603C14.9373 6.23309 14.9357 6.31024 14.9152 6.38677L14.1119 9.38458L15.0213 9.62823C15.288 9.6997 15.4463 9.97387 15.3748 10.2406C15.3034 10.5073 15.0292 10.6656 14.7625 10.5942L13.8531 10.3505L13.4229 11.956C13.3515 12.2227 13.0773 12.381 12.8106 12.3095C12.5438 12.2381 12.3855 11.9639 12.457 11.6972L12.8872 10.0917L11.9779 9.84803C11.7111 9.77656 11.5528 9.50239 11.6243 9.23565C11.6958 8.96892 11.97 8.81063 12.2367 8.8821L13.146 9.12576L13.9493 6.12795C13.9698 6.05142 14.007 5.98381 14.0559 5.928L11.7048 5.29802C11.4381 5.22655 11.2798 4.95238 11.3512 4.68565ZM7.04179 7.54066L4.34874 8.52729C4.2558 8.56273 4.15406 8.56964 4.05734 8.54733C3.9972 8.53346 3.93899 8.50828 3.88606 8.47163C3.83717 8.43792 3.79399 8.39534 3.75924 8.34514C3.7201 8.28881 3.69375 8.22598 3.68041 8.16088C3.66868 8.10414 3.66716 8.04703 3.67484 7.99177C3.68683 7.90433 3.72204 7.81922 3.78096 7.74627C3.78818 7.73731 3.79571 7.72858 3.80356 7.72011C4.24572 7.23102 4.67131 6.88611 5.19368 6.69902C5.71025 6.514 6.2641 6.50433 6.91854 6.57009C6.93783 6.5717 6.95695 6.57443 6.9758 6.57825C7.05572 6.59424 7.12805 6.62895 7.18858 6.67724C7.28345 6.75293 7.34935 6.86197 7.37013 6.98457C7.38321 7.06086 7.37802 7.13741 7.35706 7.20885C7.34236 7.25932 7.32003 7.30621 7.29151 7.34836C7.24108 7.42317 7.17004 7.48498 7.08285 7.52423C7.06945 7.5303 7.05575 7.53578 7.04179 7.54066ZM3.14064 9.43998C2.88135 9.53498 2.74816 9.82218 2.84315 10.0815C2.93814 10.3408 3.22535 10.4739 3.48464 10.379L5.77013 9.54164C5.76223 9.61543 5.7707 9.69212 5.79795 9.76651L6.86557 12.6806L5.98164 13.0045C5.72235 13.0995 5.58916 13.3867 5.68415 13.646C5.77915 13.9052 6.06635 14.0384 6.32564 13.9434L7.20957 13.6196L7.78135 15.1803C7.87634 15.4396 8.16354 15.5728 8.42283 15.4778C8.68212 15.3828 8.81531 15.0956 8.72032 14.8363L8.14854 13.2756L9.03253 12.9517C9.29182 12.8567 9.42501 12.5695 9.33002 12.3103C9.23503 12.051 8.94782 11.9178 8.68853 12.0128L7.80454 12.3366L6.73692 9.42251C6.70967 9.34812 6.66659 9.2841 6.61289 9.23288L8.89843 8.39556C9.15772 8.30056 9.2909 8.01336 9.19591 7.75407C9.10092 7.49478 8.81372 7.36159 8.55443 7.45659L3.14064 9.43998Z" fill="black"/>
</svg>
