<svg width="20" height="20" viewBox="0 0 20 20" fill="none" xmlns="http://www.w3.org/2000/svg">
<path fill-rule="evenodd" clip-rule="evenodd" d="M9.99984 1.84915L9.68209 2.23044L9.67662 2.23701L9.67603 2.23772L9.66639 2.24939L9.63009 2.29369C9.59858 2.33235 9.55277 2.38898 9.49472 2.46197C9.37862 2.60792 9.21342 2.81939 9.01546 3.08333C8.61988 3.61078 8.09188 4.3499 7.56317 5.19583C7.03515 6.04067 6.50192 6.99917 6.0996 7.96474C5.69941 8.92519 5.4165 9.92125 5.4165 10.8333C5.4165 12.6151 6.43314 14.1585 7.9165 14.9168V17.5V17.9167H8.33317H11.6665H12.0832V17.5V14.9168C13.5665 14.1585 14.5832 12.6151 14.5832 10.8333C14.5832 9.92125 14.3003 8.92519 13.9001 7.96474C13.4978 6.99917 12.9645 6.04067 12.4365 5.19583C11.9078 4.3499 11.3798 3.61078 10.9842 3.08333C10.7863 2.81939 10.6211 2.60792 10.505 2.46197C10.4469 2.38898 10.4011 2.33235 10.3696 2.29369L10.3333 2.24939L10.3236 2.23772L10.3214 2.23505L9.68209 2.23044L10.3191 2.23226L9.99984 1.84915ZM8.26984 5.6375C8.74006 4.88514 9.21089 4.21808 9.58316 3.71605V8.82108C9.09766 8.99268 8.74982 9.4557 8.74982 9.99996C8.74982 10.6903 9.30946 11.25 9.99982 11.25C10.6902 11.25 11.2498 10.6903 11.2498 9.99996C11.2498 9.45571 10.902 8.99269 10.4165 8.82109V3.71602C10.7888 4.21806 11.2596 4.88512 11.7298 5.6375C12.2435 6.45933 12.7519 7.37583 13.1308 8.28526C13.5119 9.19981 13.7498 10.0788 13.7498 10.8333C13.7498 12.3704 12.825 13.6924 11.4997 14.2715L11.2498 14.3807V14.6533V17.0833H8.74984V14.6533V14.3807L8.5 14.2715C7.1747 13.6924 6.24984 12.3704 6.24984 10.8333C6.24984 10.0788 6.48776 9.19981 6.86883 8.28526C7.24776 7.37583 7.75619 6.45933 8.26984 5.6375ZM9.58315 9.99996C9.58315 9.76984 9.7697 9.58329 9.99982 9.58329C10.2299 9.58329 10.4165 9.76984 10.4165 9.99996C10.4165 10.2301 10.2299 10.4166 9.99982 10.4166C9.7697 10.4166 9.58315 10.2301 9.58315 9.99996Z" fill="white"/>
</svg>
