<svg width="22" height="23" viewBox="0 0 22 23" fill="none" xmlns="http://www.w3.org/2000/svg">
<path d="M18.0409 5.99554C18.0409 5.27282 17.4545 4.68645 16.7318 4.68645C16.0091 4.68645 15.4227 5.27282 15.4227 5.99554C15.4227 6.71827 16.0091 7.30463 16.7318 7.30463C17.4559 7.30463 18.0409 6.71827 18.0409 5.99554Z" fill="white"/>
<path fill-rule="evenodd" clip-rule="evenodd" d="M16.5109 11.8183C16.5109 8.72418 14.0018 6.21645 10.9091 6.21645C7.815 6.21645 5.30727 8.72418 5.30727 11.8183C5.30727 14.9124 7.81636 17.4201 10.9091 17.4201C14.0032 17.4201 16.5109 14.9124 16.5109 11.8183ZM10.9091 15.4551C12.9177 15.4551 14.5459 13.8269 14.5459 11.8183C14.5459 9.80964 12.9177 8.18145 10.9091 8.18145C8.90046 8.18145 7.27227 9.80964 7.27227 11.8183C7.27227 13.8283 8.90046 15.4551 10.9091 15.4551Z" fill="white"/>
<path fill-rule="evenodd" clip-rule="evenodd" d="M21.8182 11.8183C21.8182 8.85645 21.8059 8.48418 21.7527 7.321C21.5741 3.36372 19.3732 1.15736 15.4077 0.975998C14.2432 0.921452 13.8723 0.90918 10.9091 0.90918C7.94591 0.90918 7.57636 0.921452 6.41182 0.974634C2.44909 1.156 0.248182 3.35418 0.0654545 7.31963C0.0122727 8.48418 0 8.85645 0 11.8183C0 14.7815 0.0122727 15.1524 0.0654545 16.3155C0.248182 20.2783 2.44636 22.4805 6.41182 22.6619C7.57636 22.7151 7.94591 22.7274 10.9091 22.7274C13.8723 22.7274 14.2432 22.7151 15.4077 22.6619C19.365 22.4805 21.5741 20.2824 21.7527 16.3155C21.8059 15.1524 21.8182 14.7815 21.8182 11.8183ZM19.8532 11.8183C19.8532 8.90554 19.8423 8.56054 19.7905 7.411C19.6541 4.47645 18.2741 3.07327 15.3177 2.93827C14.1682 2.88645 13.8218 2.87554 10.9091 2.87554C7.99637 2.87554 7.65136 2.88645 6.50045 2.93963C3.54136 3.07327 2.16409 4.47645 2.02909 7.411C1.97727 8.56054 1.965 8.90554 1.965 11.8183C1.965 14.731 1.97727 15.076 2.03045 16.2283C2.16409 19.156 3.53727 20.5646 6.50182 20.6996C7.65 20.7515 7.99637 20.7624 10.9091 20.7624C13.8232 20.7624 14.1682 20.7501 15.3191 20.6983C18.2782 20.5646 19.6541 19.1587 19.7905 16.2269C19.8423 15.076 19.8532 14.731 19.8532 11.8183Z" fill="white"/>
</svg>
