<svg width="26" height="18" viewBox="0 0 26 18" fill="none" xmlns="http://www.w3.org/2000/svg">
<path fill-rule="evenodd" clip-rule="evenodd" d="M25.1374 8.55118C25.1374 8.55118 25.1374 12.5059 24.6357 14.4128C24.3546 15.4566 23.5316 16.2797 22.4878 16.5605C20.5808 17.0625 12.9529 17.0625 12.9529 17.0625C12.9529 17.0625 5.34492 17.0625 3.41801 16.5406C2.37422 16.2597 1.55121 15.4364 1.27003 14.3926C0.768066 12.5059 0.768066 8.53125 0.768066 8.53125C0.768066 8.53125 0.768066 4.57686 1.27003 2.66988C1.55091 1.62609 2.39416 0.782844 3.41801 0.50196C5.32499 0 12.9529 0 12.9529 0C12.9529 0 20.5808 0 22.4878 0.521896C23.5316 0.80278 24.3546 1.62609 24.6357 2.66988C25.1576 4.57686 25.1374 8.55118 25.1374 8.55118ZM16.8674 8.53096L10.5243 12.1842V4.87769L16.8674 8.53096Z" fill="white"/>
</svg>
