<svg width="22" height="28" viewBox="0 0 22 28" fill="none" xmlns="http://www.w3.org/2000/svg">
<path d="M11.4548 0.727539C3.95878 0.727539 0.181641 5.93139 0.181641 10.2696C0.181641 12.8968 1.20804 15.2341 3.41243 16.105C3.77272 16.2472 4.09855 16.1102 4.20224 15.7234L4.52397 14.4961C4.63029 14.1145 4.58911 13.979 4.2979 13.6453C3.661 12.9206 3.25689 11.9807 3.25689 10.6498C3.25689 6.79013 6.23912 3.33458 11.0228 3.33458C15.2601 3.33458 17.5868 5.84084 17.5868 9.1873C17.5868 13.5908 15.5738 17.3082 12.585 17.3082C10.9363 17.3082 9.69993 15.988 10.0961 14.3646C10.5695 12.4314 11.4896 10.3427 11.4896 8.9453C11.4896 7.69692 10.7969 6.65182 9.36096 6.65182C7.67371 6.65182 6.319 8.3417 6.319 10.6058C6.319 12.0484 6.82286 13.023 6.82286 13.023L4.79269 21.3472C4.19041 23.8162 4.70361 26.8449 4.74611 27.1507C4.77269 27.3315 5.01205 27.374 5.121 27.2385C5.27654 27.0418 7.28552 24.6392 7.96886 22.2381C8.16296 21.5587 9.07909 18.0393 9.07909 18.0393C9.6269 19.0538 11.229 19.9446 12.9322 19.9446C18.0017 19.9446 21.4426 15.4681 21.4426 9.47705C21.441 4.94749 17.479 0.727539 11.4548 0.727539Z" fill="white"/>
</svg>
