<svg width="28" height="23" viewBox="0 0 28 23" fill="none" xmlns="http://www.w3.org/2000/svg">
<path d="M27.7568 3.49215C26.769 3.93066 25.7075 4.22598 24.5933 4.3591C25.7309 3.67784 26.6046 2.59834 27.0152 1.31189C25.9513 1.94281 24.7723 2.40146 23.5171 2.64868C22.5137 1.57813 21.0807 0.90918 19.4967 0.90918C15.9405 0.90918 13.3273 4.2271 14.1305 7.67143C9.55412 7.4421 5.49565 5.24955 2.77845 1.91708C1.33539 4.39266 2.03007 7.63116 4.48215 9.2711C3.58052 9.24201 2.73034 8.99479 1.98868 8.58201C1.92827 11.1337 3.75727 13.5209 6.40623 14.0522C5.63101 14.2625 4.78195 14.3117 3.91835 14.1462C4.61863 16.3343 6.65234 17.9261 9.06415 17.9709C6.74854 19.7864 3.8311 20.5974 0.90918 20.2529C3.34672 21.8157 6.24291 22.7274 9.35276 22.7274C19.5795 22.7274 25.3573 14.0903 25.0083 6.34359C26.0844 5.56613 27.0185 4.59626 27.7568 3.49215Z" fill="white"/>
</svg>
